<svg xmlns="http://www.w3.org/2000/svg" width="725" height="95" viewBox="0 0 725 95">
<style>
.l0 { fill: #ebedf0; }
.l1 { fill: #9be9a8; }
.l2 { fill: #40c463; }
.l3 { fill: #30a14e; }
.l4 { fill: #216e39; }
@media (prefers-color-scheme: dark) {
  .l0 { fill: #161b22; }
  .l1 { fill: #0e4429; }
  .l2 { fill: #006d32; }
  .l3 { fill: #26a641; }
  .l4 { fill: #39d353; }
}
</style>
<rect class="l0" x="0" y="0" width="11" height="11" rx="2" />
<rect class="l0" x="14" y="0" width="11" height="11" rx="2" />
<rect class="l0" x="28" y="0" width="11" height="11" rx="2" />
<rect class="l0" x="42" y="0" width="11" height="11" rx="2" />
<rect class="l0" x="56" y="0" width="11" height="11" rx="2" />
<rect class="l0" x="70" y="0" width="11" height="11" rx="2" />
<rect class="l0" x="84" y="0" width="11" height="11" rx="2" />
<rect class="l0" x="98" y="0" width="11" height="11" rx="2" />
<rect class="l0" x="112" y="0" width="11" height="11" rx="2" />
<rect class="l0" x="126" y="0" width="11" height="11" rx="2" />
<rect class="l0" x="140" y="0" width="11" height="11" rx="2" />
<rect class="l0" x="154" y="0" width="11" height="11" rx="2" />
<rect class="l0" x="168" y="0" width="11" height="11" rx="2" />
<rect class="l0" x="182" y="0" width="11" height="11" rx="2" />
<rect class="l0" x="196" y="0" width="11" height="11" rx="2" />
<rect class="l0" x="210" y="0" width="11" height="11" rx="2" />
<rect class="l0" x="224" y="0" width="11" height="11" rx="2" />
<rect class="l0" x="238" y="0" width="11" height="11" rx="2" />
<rect class="l0" x="252" y="0" width="11" height="11" rx="2" />
<rect class="l0" x="266" y="0" width="11" height="11" rx="2" />
<rect class="l0" x="280" y="0" width="11" height="11" rx="2" />
<rect class="l0" x="294" y="0" width="11" height="11" rx="2" />
<rect class="l0" x="308" y="0" width="11" height="11" rx="2" />
<rect class="l0" x="322" y="0" width="11" height="11" rx="2" />
<rect class="l0" x="336" y="0" width="11" height="11" rx="2" />
<rect class="l0" x="350" y="0" width="11" height="11" rx="2" />
<rect class="l0" x="364" y="0" width="11" height="11" rx="2" />
<rect class="l0" x="378" y="0" width="11" height="11" rx="2" />
<rect class="l0" x="392" y="0" width="11" height="11" rx="2" />
<rect class="l0" x="406" y="0" width="11" height="11" rx="2" />
<rect class="l0" x="420" y="0" width="11" height="11" rx="2" />
<rect class="l0" x="434" y="0" width="11" height="11" rx="2" />
<rect class="l0" x="448" y="0" width="11" height="11" rx="2" />
<rect class="l0" x="462" y="0" width="11" height="11" rx="2" />
<rect class="l0" x="476" y="0" width="11" height="11" rx="2" />
<rect class="l0" x="490" y="0" width="11" height="11" rx="2" />
<rect class="l0" x="504" y="0" width="11" height="11" rx="2" />
<rect class="l0" x="518" y="0" width="11" height="11" rx="2" />
<rect class="l0" x="532" y="0" width="11" height="11" rx="2" />
<rect class="l0" x="546" y="0" width="11" height="11" rx="2" />
<rect class="l0" x="560" y="0" width="11" height="11" rx="2" />
<rect class="l0" x="574" y="0" width="11" height="11" rx="2" />
<rect class="l0" x="588" y="0" width="11" height="11" rx="2" />
<rect class="l0" x="602" y="0" width="11" height="11" rx="2" />
<rect class="l0" x="616" y="0" width="11" height="11" rx="2" />
<rect class="l0" x="630" y="0" width="11" height="11" rx="2" />
<rect class="l0" x="644" y="0" width="11" height="11" rx="2" />
<rect class="l0" x="658" y="0" width="11" height="11" rx="2" />
<rect class="l0" x="672" y="0" width="11" height="11" rx="2" />
<rect class="l0" x="686" y="0" width="11" height="11" rx="2" />
<rect class="l0" x="700" y="0" width="11" height="11" rx="2" />
<rect class="l0" x="714" y="0" width="11" height="11" rx="2" />
<rect class="l0" x="0" y="14" width="11" height="11" rx="2" />
<rect class="l4" x="14" y="14" width="11" height="11" rx="2" />
<rect class="l4" x="28" y="14" width="11" height="11" rx="2" />
<rect class="l0" x="42" y="14" width="11" height="11" rx="2" />
<rect class="l0" x="56" y="14" width="11" height="11" rx="2" />
<rect class="l4" x="70" y="14" width="11" height="11" rx="2" />
<rect class="l0" x="84" y="14" width="11" height="11" rx="2" />
<rect class="l4" x="98" y="14" width="11" height="11" rx="2" />
<rect class="l0" x="112" y="14" width="11" height="11" rx="2" />
<rect class="l0" x="126" y="14" width="11" height="11" rx="2" />
<rect class="l4" x="140" y="14" width="11" height="11" rx="2" />
<rect class="l0" x="154" y="14" width="11" height="11" rx="2" />
<rect class="l0" x="168" y="14" width="11" height="11" rx="2" />
<rect class="l0" x="182" y="14" width="11" height="11" rx="2" />
<rect class="l4" x="196" y="14" width="11" height="11" rx="2" />
<rect class="l4" x="210" y="14" width="11" height="11" rx="2" />
<rect class="l0" x="224" y="14" width="11" height="11" rx="2" />
<rect class="l4" x="238" y="14" width="11" height="11" rx="2" />
<rect class="l4" x="252" y="14" width="11" height="11" rx="2" />
<rect class="l4" x="266" y="14" width="11" height="11" rx="2" />
<rect class="l0" x="280" y="14" width="11" height="11" rx="2" />
<rect class="l4" x="294" y="14" width="11" height="11" rx="2" />
<rect class="l0" x="308" y="14" width="11" height="11" rx="2" />
<rect class="l4" x="322" y="14" width="11" height="11" rx="2" />
<rect class="l0" x="336" y="14" width="11" height="11" rx="2" />
<rect class="l4" x="350" y="14" width="11" height="11" rx="2" />
<rect class="l0" x="364" y="14" width="11" height="11" rx="2" />
<rect class="l4" x="378" y="14" width="11" height="11" rx="2" />
<rect class="l0" x="392" y="14" width="11" height="11" rx="2" />
<rect class="l4" x="406" y="14" width="11" height="11" rx="2" />
<rect class="l4" x="420" y="14" width="11" height="11" rx="2" />
<rect class="l4" x="434" y="14" width="11" height="11" rx="2" />
<rect class="l0" x="448" y="14" width="11" height="11" rx="2" />
<rect class="l4" x="462" y="14" width="11" height="11" rx="2" />
<rect class="l0" x="476" y="14" width="11" height="11" rx="2" />
<rect class="l4" x="490" y="14" width="11" height="11" rx="2" />
<rect class="l0" x="504" y="14" width="11" height="11" rx="2" />
<rect class="l0" x="518" y="14" width="11" height="11" rx="2" />
<rect class="l0" x="532" y="14" width="11" height="11" rx="2" />
<rect class="l4" x="546" y="14" width="11" height="11" rx="2" />
<rect class="l4" x="560" y="14" width="11" height="11" rx="2" />
<rect class="l0" x="574" y="14" width="11" height="11" rx="2" />
<rect class="l0" x="588" y="14" width="11" height="11" rx="2" />
<rect class="l4" x="602" y="14" width="11" height="11" rx="2" />
<rect class="l4" x="616" y="14" width="11" height="11" rx="2" />
<rect class="l0" x="630" y="14" width="11" height="11" rx="2" />
<rect class="l0" x="644" y="14" width="11" height="11" rx="2" />
<rect class="l4" x="658" y="14" width="11" height="11" rx="2" />
<rect class="l0" x="672" y="14" width="11" height="11" rx="2" />
<rect class="l0" x="686" y="14" width="11" height="11" rx="2" />
<rect class="l0" x="700" y="14" width="11" height="11" rx="2" />
<rect class="l4" x="714" y="14" width="11" height="11" rx="2" />
<rect class="l4" x="0" y="28" width="11" height="11" rx="2" />
<rect class="l0" x="14" y="28" width="11" height="11" rx="2" />
<rect class="l0" x="28" y="28" width="11" height="11" rx="2" />
<rect class="l0" x="42" y="28" width="11" height="11" rx="2" />
<rect class="l0" x="56" y="28" width="11" height="11" rx="2" />
<rect class="l4" x="70" y="28" width="11" height="11" rx="2" />
<rect class="l0" x="84" y="28" width="11" height="11" rx="2" />
<rect class="l4" x="98" y="28" width="11" height="11" rx="2" />
<rect class="l0" x="112" y="28" width="11" height="11" rx="2" />
<rect class="l4" x="126" y="28" width="11" height="11" rx="2" />
<rect class="l0" x="140" y="28" width="11" height="11" rx="2" />
<rect class="l4" x="154" y="28" width="11" height="11" rx="2" />
<rect class="l0" x="168" y="28" width="11" height="11" rx="2" />
<rect class="l4" x="182" y="28" width="11" height="11" rx="2" />
<rect class="l0" x="196" y="28" width="11" height="11" rx="2" />
<rect class="l0" x="210" y="28" width="11" height="11" rx="2" />
<rect class="l0" x="224" y="28" width="11" height="11" rx="2" />
<rect class="l0" x="238" y="28" width="11" height="11" rx="2" />
<rect class="l4" x="252" y="28" width="11" height="11" rx="2" />
<rect class="l0" x="266" y="28" width="11" height="11" rx="2" />
<rect class="l0" x="280" y="28" width="11" height="11" rx="2" />
<rect class="l4" x="294" y="28" width="11" height="11" rx="2" />
<rect class="l0" x="308" y="28" width="11" height="11" rx="2" />
<rect class="l4" x="322" y="28" width="11" height="11" rx="2" />
<rect class="l0" x="336" y="28" width="11" height="11" rx="2" />
<rect class="l4" x="350" y="28" width="11" height="11" rx="2" />
<rect class="l0" x="364" y="28" width="11" height="11" rx="2" />
<rect class="l4" x="378" y="28" width="11" height="11" rx="2" />
<rect class="l0" x="392" y="28" width="11" height="11" rx="2" />
<rect class="l0" x="406" y="28" width="11" height="11" rx="2" />
<rect class="l4" x="420" y="28" width="11" height="11" rx="2" />
<rect class="l0" x="434" y="28" width="11" height="11" rx="2" />
<rect class="l0" x="448" y="28" width="11" height="11" rx="2" />
<rect class="l4" x="462" y="28" width="11" height="11" rx="2" />
<rect class="l0" x="476" y="28" width="11" height="11" rx="2" />
<rect class="l4" x="490" y="28" width="11" height="11" rx="2" />
<rect class="l0" x="504" y="28" width="11" height="11" rx="2" />
<rect class="l0" x="518" y="28" width="11" height="11" rx="2" />
<rect class="l4" x="532" y="28" width="11" height="11" rx="2" />
<rect class="l0" x="546" y="28" width="11" height="11" rx="2" />
<rect class="l0" x="560" y="28" width="11" height="11" rx="2" />
<rect class="l0" x="574" y="28" width="11" height="11" rx="2" />
<rect class="l4" x="588" y="28" width="11" height="11" rx="2" />
<rect class="l0" x="602" y="28" width="11" height="11" rx="2" />
<rect class="l0" x="616" y="28" width="11" height="11" rx="2" />
<rect class="l4" x="630" y="28" width="11" height="11" rx="2" />
<rect class="l0" x="644" y="28" width="11" height="11" rx="2" />
<rect class="l4" x="658" y="28" width="11" height="11" rx="2" />
<rect class="l4" x="672" y="28" width="11" height="11" rx="2" />
<rect class="l0" x="686" y="28" width="11" height="11" rx="2" />
<rect class="l4" x="700" y="28" width="11" height="11" rx="2" />
<rect class="l4" x="714" y="28" width="11" height="11" rx="2" />
<rect class="l4" x="0" y="42" width="11" height="11" rx="2" />
<rect class="l0" x="14" y="42" width="11" height="11" rx="2" />
<rect class="l4" x="28" y="42" width="11" height="11" rx="2" />
<rect class="l4" x="42" y="42" width="11" height="11" rx="2" />
<rect class="l0" x="56" y="42" width="11" height="11" rx="2" />
<rect class="l4" x="70" y="42" width="11" height="11" rx="2" />
<rect class="l4" x="84" y="42" width="11" height="11" rx="2" />
<rect class="l4" x="98" y="42" width="11" height="11" rx="2" />
<rect class="l0" x="112" y="42" width="11" height="11" rx="2" />
<rect class="l4" x="126" y="42" width="11" height="11" rx="2" />
<rect class="l4" x="140" y="42" width="11" height="11" rx="2" />
<rect class="l4" x="154" y="42" width="11" height="11" rx="2" />
<rect class="l0" x="168" y="42" width="11" height="11" rx="2" />
<rect class="l4" x="182" y="42" width="11" height="11" rx="2" />
<rect class="l0" x="196" y="42" width="11" height="11" rx="2" />
<rect class="l0" x="210" y="42" width="11" height="11" rx="2" />
<rect class="l0" x="224" y="42" width="11" height="11" rx="2" />
<rect class="l0" x="238" y="42" width="11" height="11" rx="2" />
<rect class="l4" x="252" y="42" width="11" height="11" rx="2" />
<rect class="l0" x="266" y="42" width="11" height="11" rx="2" />
<rect class="l0" x="280" y="42" width="11" height="11" rx="2" />
<rect class="l4" x="294" y="42" width="11" height="11" rx="2" />
<rect class="l0" x="308" y="42" width="11" height="11" rx="2" />
<rect class="l4" x="322" y="42" width="11" height="11" rx="2" />
<rect class="l0" x="336" y="42" width="11" height="11" rx="2" />
<rect class="l4" x="350" y="42" width="11" height="11" rx="2" />
<rect class="l0" x="364" y="42" width="11" height="11" rx="2" />
<rect class="l4" x="378" y="42" width="11" height="11" rx="2" />
<rect class="l0" x="392" y="42" width="11" height="11" rx="2" />
<rect class="l0" x="406" y="42" width="11" height="11" rx="2" />
<rect class="l4" x="420" y="42" width="11" height="11" rx="2" />
<rect class="l0" x="434" y="42" width="11" height="11" rx="2" />
<rect class="l0" x="448" y="42" width="11" height="11" rx="2" />
<rect class="l0" x="462" y="42" width="11" height="11" rx="2" />
<rect class="l4" x="476" y="42" width="11" height="11" rx="2" />
<rect class="l0" x="490" y="42" width="11" height="11" rx="2" />
<rect class="l0" x="504" y="42" width="11" height="11" rx="2" />
<rect class="l0" x="518" y="42" width="11" height="11" rx="2" />
<rect class="l4" x="532" y="42" width="11" height="11" rx="2" />
<rect class="l0" x="546" y="42" width="11" height="11" rx="2" />
<rect class="l0" x="560" y="42" width="11" height="11" rx="2" />
<rect class="l0" x="574" y="42" width="11" height="11" rx="2" />
<rect class="l4" x="588" y="42" width="11" height="11" rx="2" />
<rect class="l0" x="602" y="42" width="11" height="11" rx="2" />
<rect class="l0" x="616" y="42" width="11" height="11" rx="2" />
<rect class="l4" x="630" y="42" width="11" height="11" rx="2" />
<rect class="l0" x="644" y="42" width="11" height="11" rx="2" />
<rect class="l4" x="658" y="42" width="11" height="11" rx="2" />
<rect class="l0" x="672" y="42" width="11" height="11" rx="2" />
<rect class="l4" x="686" y="42" width="11" height="11" rx="2" />
<rect class="l0" x="700" y="42" width="11" height="11" rx="2" />
<rect class="l4" x="714" y="42" width="11" height="11" rx="2" />
<rect class="l4" x="0" y="56" width="11" height="11" rx="2" />
<rect class="l0" x="14" y="56" width="11" height="11" rx="2" />
<rect class="l0" x="28" y="56" width="11" height="11" rx="2" />
<rect class="l4" x="42" y="56" width="11" height="11" rx="2" />
<rect class="l0" x="56" y="56" width="11" height="11" rx="2" />
<rect class="l4" x="70" y="56" width="11" height="11" rx="2" />
<rect class="l0" x="84" y="56" width="11" height="11" rx="2" />
<rect class="l4" x="98" y="56" width="11" height="11" rx="2" />
<rect class="l0" x="112" y="56" width="11" height="11" rx="2" />
<rect class="l4" x="126" y="56" width="11" height="11" rx="2" />
<rect class="l0" x="140" y="56" width="11" height="11" rx="2" />
<rect class="l4" x="154" y="56" width="11" height="11" rx="2" />
<rect class="l0" x="168" y="56" width="11" height="11" rx="2" />
<rect class="l4" x="182" y="56" width="11" height="11" rx="2" />
<rect class="l0" x="196" y="56" width="11" height="11" rx="2" />
<rect class="l0" x="210" y="56" width="11" height="11" rx="2" />
<rect class="l0" x="224" y="56" width="11" height="11" rx="2" />
<rect class="l0" x="238" y="56" width="11" height="11" rx="2" />
<rect class="l4" x="252" y="56" width="11" height="11" rx="2" />
<rect class="l0" x="266" y="56" width="11" height="11" rx="2" />
<rect class="l0" x="280" y="56" width="11" height="11" rx="2" />
<rect class="l4" x="294" y="56" width="11" height="11" rx="2" />
<rect class="l0" x="308" y="56" width="11" height="11" rx="2" />
<rect class="l4" x="322" y="56" width="11" height="11" rx="2" />
<rect class="l0" x="336" y="56" width="11" height="11" rx="2" />
<rect class="l4" x="350" y="56" width="11" height="11" rx="2" />
<rect class="l0" x="364" y="56" width="11" height="11" rx="2" />
<rect class="l4" x="378" y="56" width="11" height="11" rx="2" />
<rect class="l0" x="392" y="56" width="11" height="11" rx="2" />
<rect class="l0" x="406" y="56" width="11" height="11" rx="2" />
<rect class="l4" x="420" y="56" width="11" height="11" rx="2" />
<rect class="l0" x="434" y="56" width="11" height="11" rx="2" />
<rect class="l0" x="448" y="56" width="11" height="11" rx="2" />
<rect class="l0" x="462" y="56" width="11" height="11" rx="2" />
<rect class="l4" x="476" y="56" width="11" height="11" rx="2" />
<rect class="l0" x="490" y="56" width="11" height="11" rx="2" />
<rect class="l0" x="504" y="56" width="11" height="11" rx="2" />
<rect class="l0" x="518" y="56" width="11" height="11" rx="2" />
<rect class="l4" x="532" y="56" width="11" height="11" rx="2" />
<rect class="l0" x="546" y="56" width="11" height="11" rx="2" />
<rect class="l0" x="560" y="56" width="11" height="11" rx="2" />
<rect class="l0" x="574" y="56" width="11" height="11" rx="2" />
<rect class="l4" x="588" y="56" width="11" height="11" rx="2" />
<rect class="l0" x="602" y="56" width="11" height="11" rx="2" />
<rect class="l0" x="616" y="56" width="11" height="11" rx="2" />
<rect class="l4" x="630" y="56" width="11" height="11" rx="2" />
<rect class="l0" x="644" y="56" width="11" height="11" rx="2" />
<rect class="l4" x="658" y="56" width="11" height="11" rx="2" />
<rect class="l0" x="672" y="56" width="11" height="11" rx="2" />
<rect class="l0" x="686" y="56" width="11" height="11" rx="2" />
<rect class="l0" x="700" y="56" width="11" height="11" rx="2" />
<rect class="l4" x="714" y="56" width="11" height="11" rx="2" />
<rect class="l0" x="0" y="70" width="11" height="11" rx="2" />
<rect class="l4" x="14" y="70" width="11" height="11" rx="2" />
<rect class="l4" x="28" y="70" width="11" height="11" rx="2" />
<rect class="l0" x="42" y="70" width="11" height="11" rx="2" />
<rect class="l0" x="56" y="70" width="11" height="11" rx="2" />
<rect class="l4" x="70" y="70" width="11" height="11" rx="2" />
<rect class="l0" x="84" y="70" width="11" height="11" rx="2" />
<rect class="l4" x="98" y="70" width="11" height="11" rx="2" />
<rect class="l0" x="112" y="70" width="11" height="11" rx="2" />
<rect class="l4" x="126" y="70" width="11" height="11" rx="2" />
<rect class="l0" x="140" y="70" width="11" height="11" rx="2" />
<rect class="l4" x="154" y="70" width="11" height="11" rx="2" />
<rect class="l0" x="168" y="70" width="11" height="11" rx="2" />
<rect class="l0" x="182" y="70" width="11" height="11" rx="2" />
<rect class="l4" x="196" y="70" width="11" height="11" rx="2" />
<rect class="l4" x="210" y="70" width="11" height="11" rx="2" />
<rect class="l0" x="224" y="70" width="11" height="11" rx="2" />
<rect class="l0" x="238" y="70" width="11" height="11" rx="2" />
<rect class="l4" x="252" y="70" width="11" height="11" rx="2" />
<rect class="l0" x="266" y="70" width="11" height="11" rx="2" />
<rect class="l0" x="280" y="70" width="11" height="11" rx="2" />
<rect class="l4" x="294" y="70" width="11" height="11" rx="2" />
<rect class="l0" x="308" y="70" width="11" height="11" rx="2" />
<rect class="l0" x="322" y="70" width="11" height="11" rx="2" />
<rect class="l4" x="336" y="70" width="11" height="11" rx="2" />
<rect class="l0" x="350" y="70" width="11" height="11" rx="2" />
<rect class="l0" x="364" y="70" width="11" height="11" rx="2" />
<rect class="l4" x="378" y="70" width="11" height="11" rx="2" />
<rect class="l0" x="392" y="70" width="11" height="11" rx="2" />
<rect class="l0" x="406" y="70" width="11" height="11" rx="2" />
<rect class="l4" x="420" y="70" width="11" height="11" rx="2" />
<rect class="l0" x="434" y="70" width="11" height="11" rx="2" />
<rect class="l0" x="448" y="70" width="11" height="11" rx="2" />
<rect class="l0" x="462" y="70" width="11" height="11" rx="2" />
<rect class="l4" x="476" y="70" width="11" height="11" rx="2" />
<rect class="l0" x="490" y="70" width="11" height="11" rx="2" />
<rect class="l4" x="504" y="70" width="11" height="11" rx="2" />
<rect class="l0" x="518" y="70" width="11" height="11" rx="2" />
<rect class="l0" x="532" y="70" width="11" height="11" rx="2" />
<rect class="l4" x="546" y="70" width="11" height="11" rx="2" />
<rect class="l4" x="560" y="70" width="11" height="11" rx="2" />
<rect class="l0" x="574" y="70" width="11" height="11" rx="2" />
<rect class="l0" x="588" y="70" width="11" height="11" rx="2" />
<rect class="l4" x="602" y="70" width="11" height="11" rx="2" />
<rect class="l4" x="616" y="70" width="11" height="11" rx="2" />
<rect class="l0" x="630" y="70" width="11" height="11" rx="2" />
<rect class="l0" x="644" y="70" width="11" height="11" rx="2" />
<rect class="l4" x="658" y="70" width="11" height="11" rx="2" />
<rect class="l0" x="672" y="70" width="11" height="11" rx="2" />
<rect class="l0" x="686" y="70" width="11" height="11" rx="2" />
<rect class="l0" x="700" y="70" width="11" height="11" rx="2" />
<rect class="l4" x="714" y="70" width="11" height="11" rx="2" />
<rect class="l0" x="0" y="84" width="11" height="11" rx="2" />
<rect class="l0" x="14" y="84" width="11" height="11" rx="2" />
<rect class="l0" x="28" y="84" width="11" height="11" rx="2" />
<rect class="l0" x="42" y="84" width="11" height="11" rx="2" />
<rect class="l0" x="56" y="84" width="11" height="11" rx="2" />
<rect class="l0" x="70" y="84" width="11" height="11" rx="2" />
<rect class="l0" x="84" y="84" width="11" height="11" rx="2" />
<rect class="l0" x="98" y="84" width="11" height="11" rx="2" />
<rect class="l0" x="112" y="84" width="11" height="11" rx="2" />
<rect class="l0" x="126" y="84" width="11" height="11" rx="2" />
<rect class="l0" x="140" y="84" width="11" height="11" rx="2" />
<rect class="l0" x="154" y="84" width="11" height="11" rx="2" />
<rect class="l0" x="168" y="84" width="11" height="11" rx="2" />
<rect class="l0" x="182" y="84" width="11" height="11" rx="2" />
<rect class="l0" x="196" y="84" width="11" height="11" rx="2" />
<rect class="l0" x="210" y="84" width="11" height="11" rx="2" />
<rect class="l0" x="224" y="84" width="11" height="11" rx="2" />
<rect class="l0" x="238" y="84" width="11" height="11" rx="2" />
<rect class="l0" x="252" y="84" width="11" height="11" rx="2" />
<rect class="l0" x="266" y="84" width="11" height="11" rx="2" />
<rect class="l0" x="280" y="84" width="11" height="11" rx="2" />
<rect class="l0" x="294" y="84" width="11" height="11" rx="2" />
<rect class="l0" x="308" y="84" width="11" height="11" rx="2" />
<rect class="l0" x="322" y="84" width="11" height="11" rx="2" />
<rect class="l0" x="336" y="84" width="11" height="11" rx="2" />
<rect class="l0" x="350" y="84" width="11" height="11" rx="2" />
<rect class="l0" x="364" y="84" width="11" height="11" rx="2" />
<rect class="l0" x="378" y="84" width="11" height="11" rx="2" />
<rect class="l0" x="392" y="84" width="11" height="11" rx="2" />
<rect class="l0" x="406" y="84" width="11" height="11" rx="2" />
<rect class="l0" x="420" y="84" width="11" height="11" rx="2" />
<rect class="l0" x="434" y="84" width="11" height="11" rx="2" />
<rect class="l0" x="448" y="84" width="11" height="11" rx="2" />
<rect class="l0" x="462" y="84" width="11" height="11" rx="2" />
<rect class="l0" x="476" y="84" width="11" height="11" rx="2" />
<rect class="l0" x="490" y="84" width="11" height="11" rx="2" />
<rect class="l0" x="504" y="84" width="11" height="11" rx="2" />
<rect class="l0" x="518" y="84" width="11" height="11" rx="2" />
<rect class="l0" x="532" y="84" width="11" height="11" rx="2" />
<rect class="l0" x="546" y="84" width="11" height="11" rx="2" />
<rect class="l0" x="560" y="84" width="11" height="11" rx="2" />
<rect class="l0" x="574" y="84" width="11" height="11" rx="2" />
<rect class="l0" x="588" y="84" width="11" height="11" rx="2" />
<rect class="l0" x="602" y="84" width="11" height="11" rx="2" />
<rect class="l0" x="616" y="84" width="11" height="11" rx="2" />
<rect class="l0" x="630" y="84" width="11" height="11" rx="2" />
<rect class="l0" x="644" y="84" width="11" height="11" rx="2" />
<rect class="l0" x="658" y="84" width="11" height="11" rx="2" />
<rect class="l0" x="672" y="84" width="11" height="11" rx="2" />
<rect class="l0" x="686" y="84" width="11" height="11" rx="2" />
<rect class="l0" x="700" y="84" width="11" height="11" rx="2" />
<rect class="l0" x="714" y="84" width="11" height="11" rx="2" />
</svg>